<?xml version="1.0" encoding="UTF-8"?>
<svg width="32" height="32" viewBox="0 0 32 32" fill="none" xmlns="http://www.w3.org/2000/svg">
  <path d="M24 8H20V12H24V8Z" fill="#2563EB"/>
  <path d="M28 16H4V20H28V16Z" fill="#2563EB"/>
  <path d="M8 20C9.10457 20 10 19.1046 10 18C10 16.8954 9.10457 16 8 16C6.89543 16 6 16.8954 6 18C6 19.1046 6.89543 20 8 20Z" fill="#2563EB"/>
  <path d="M24 20C25.1046 20 26 19.1046 26 18C26 16.8954 25.1046 16 24 16C22.8954 16 22 16.8954 22 18C22 19.1046 22.8954 20 24 20Z" fill="#2563EB"/>
  <path d="M30 12H28V8C28 6.89543 27.1046 6 26 6H20V12H18V6H4C2.89543 6 2 6.89543 2 8V20H4C4 22.2091 5.79086 24 8 24C10.2091 24 12 22.2091 12 20H20C20 22.2091 21.7909 24 24 24C26.2091 24 28 22.2091 28 20H30V12Z" fill="#2563EB"/>
</svg> 